<svg width="110" height="105" viewBox="0 0 110 105" fill="none" xmlns="http://www.w3.org/2000/svg">
<path d="M23.25 103H15.75L8.25 52.375V103H0.75V1.75H8.25V48.625L15.75 1.75H23.25L15.75 44.875L14.9297 50.5L15.75 56.125L23.25 103ZM51.375 93.625C51.375 94.0938 51.3164 94.9531 51.1992 96.2031C51.082 97.4141 50.6719 98.6641 49.9688 99.9531C49.2656 101.242 48.1523 102.375 46.6289 103.352C45.1055 104.367 42.9375 104.875 40.125 104.875C37.3125 104.875 35.1445 104.367 33.6211 103.352C32.0977 102.375 30.9844 101.242 30.2812 99.9531C29.5781 98.6641 29.168 97.4141 29.0508 96.2031C28.9336 94.9531 28.875 94.0938 28.875 93.625V11.125C28.875 10.8125 28.8945 10.3438 28.9336 9.71875C28.9727 9.09375 29.0898 8.41016 29.2852 7.66797C29.4805 6.88672 29.8125 6.10547 30.2812 5.32422C30.75 4.50391 31.3945 3.76172 32.2148 3.09766C33.0352 2.43359 34.0898 1.90625 35.3789 1.51562C36.668 1.08594 38.25 0.871094 40.125 0.871094C42 0.871094 43.582 1.08594 44.8711 1.51562C46.1602 1.90625 47.2148 2.43359 48.0352 3.09766C48.8555 3.76172 49.5 4.50391 49.9688 5.32422C50.4375 6.10547 50.7695 6.88672 50.9648 7.66797C51.1602 8.41016 51.2773 9.09375 51.3164 9.71875C51.3555 10.3438 51.375 10.8125 51.375 11.125V93.625ZM36.375 93.625C36.375 94.0938 36.3945 94.6602 36.4336 95.3242C36.4727 95.9492 36.6094 96.5547 36.8438 97.1406C37.0781 97.7266 37.4492 98.2344 37.957 98.6641C38.4648 99.0547 39.1875 99.25 40.125 99.25C41.0625 99.25 41.7852 99.0547 42.293 98.6641C42.8008 98.2344 43.1719 97.7266 43.4062 97.1406C43.6406 96.5547 43.7773 95.9492 43.8164 95.3242C43.8555 94.6602 43.875 94.0938 43.875 93.625V11.125C43.875 10.6562 43.8555 10.1484 43.8164 9.60156C43.7773 9.05469 43.6406 8.56641 43.4062 8.13672C43.1719 7.66797 42.8008 7.27734 42.293 6.96484C41.7852 6.65234 41.0625 6.49609 40.125 6.49609C39.1875 6.49609 38.4648 6.65234 37.957 6.96484C37.4492 7.27734 37.0781 7.66797 36.8438 8.13672C36.6094 8.56641 36.4727 9.05469 36.4336 9.60156C36.3945 10.1484 36.375 10.6562 36.375 11.125V93.625ZM81.375 43H73.875V11.125C73.875 10.6562 73.8555 10.1484 73.8164 9.60156C73.7773 9.05469 73.6406 8.56641 73.4062 8.13672C73.1719 7.66797 72.8008 7.27734 72.293 6.96484C71.7852 6.65234 71.0625 6.49609 70.125 6.49609C69.1875 6.49609 68.4648 6.65234 67.957 6.96484C67.4492 7.27734 67.0781 7.66797 66.8438 8.13672C66.6094 8.56641 66.4727 9.05469 66.4336 9.60156C66.3945 10.1484 66.375 10.6562 66.375 11.125V93.625C66.375 94.0938 66.3945 94.6602 66.4336 95.3242C66.4727 95.9492 66.6094 96.5547 66.8438 97.1406C67.0781 97.7266 67.4492 98.2344 67.957 98.6641C68.4648 99.0547 69.1875 99.25 70.125 99.25C71.0625 99.25 71.7852 99.0547 72.293 98.6641C72.8008 98.2344 73.1719 97.7266 73.4062 97.1406C73.6406 96.5547 73.7773 95.9492 73.8164 95.3242C73.8555 94.6602 73.875 94.0938 73.875 93.625V56.125H72V50.5H81.375V93.625C81.375 94.0938 81.3164 94.9531 81.1992 96.2031C81.082 97.4141 80.6719 98.6641 79.9688 99.9531C79.2656 101.242 78.1523 102.375 76.6289 103.352C75.1055 104.367 72.9375 104.875 70.125 104.875C67.3125 104.875 65.1445 104.367 63.6211 103.352C62.0977 102.375 60.9844 101.242 60.2812 99.9531C59.5781 98.6641 59.168 97.4141 59.0508 96.2031C58.9336 94.9531 58.875 94.0938 58.875 93.625V11.125C58.875 10.8125 58.8945 10.3438 58.9336 9.71875C58.9727 9.09375 59.0898 8.41016 59.2852 7.66797C59.4805 6.88672 59.8125 6.10547 60.2812 5.32422C60.75 4.50391 61.3945 3.76172 62.2148 3.09766C63.0352 2.43359 64.0898 1.90625 65.3789 1.51562C66.668 1.08594 68.25 0.871094 70.125 0.871094C72 0.871094 73.582 1.08594 74.8711 1.51562C76.1602 1.90625 77.2148 2.43359 78.0352 3.09766C78.8555 3.76172 79.5 4.50391 79.9688 5.32422C80.4375 6.10547 80.7695 6.88672 80.9648 7.66797C81.1602 8.41016 81.2773 9.09375 81.3164 9.71875C81.3555 10.3438 81.375 10.8125 81.375 11.125V43ZM109.5 103H102L101.062 78.625H95.4961L94.5 103H87L92.625 1.75H103.875L109.5 103ZM100.125 50.5L98.25 5.5L96.375 50.5L95.4961 73H101.062L100.125 50.5Z" fill="white"/>
</svg>
